<svg xmlns="http://www.w3.org/2000/svg" width="35.429" height="33.502" viewBox="0 0 35.429 33.502">
  <g id="Group_59946" data-name="Group 59946" transform="translate(-560.212 -196.584)">
    <path id="Path_119067" data-name="Path 119067" d="M595.141,216.5c-.087.322-.156.65-.263.965a4.641,4.641,0,0,1-4.193,3.157c-.514.023-1.03.013-1.546.008a1.043,1.043,0,0,1-1.12-1.142q0-4.294,0-8.588a17.622,17.622,0,0,0-.211-3.656,10.083,10.083,0,0,0-19.631-.432,11.442,11.442,0,0,0-.323,2.695c-.037,3.278-.015,6.556-.015,9.834,0,.848-.252,1.208-1.077,1.293a5.252,5.252,0,0,1-5.063-1.828,4.537,4.537,0,0,1-.981-2.841q-.011-1.448,0-2.9a4.706,4.706,0,0,1,4.607-4.707c.122,0,.244,0,.384,0a12.2,12.2,0,0,1,5.17-9.035,11.9,11.9,0,0,1,7.759-2.225,12.233,12.233,0,0,1,11.516,11.225c.382.039.774.049,1.153.123a4.669,4.669,0,0,1,3.777,3.887,1.351,1.351,0,0,0,.06.189Z" fill="none" stroke="#09366f" stroke-width="1"/>
    <path id="Path_119068" data-name="Path 119068" d="M717.163,515.021c-.448,0-.9.008-1.344,0a2.153,2.153,0,0,1-.057-4.3q1.393-.043,2.788,0a2.152,2.152,0,0,1-.044,4.3C718.059,515.03,717.611,515.021,717.163,515.021Z" transform="translate(-139.224 -285.439)" fill="none" stroke="#09366f" stroke-width="1"/>
    <path id="Path_119069" data-name="Path 119069" d="M619.567,478.317v1.154a7.268,7.268,0,0,1-7.98-6.083h1.156C613.742,476.805,616.038,478.42,619.567,478.317Z" transform="translate(-46.305 -251.483)" fill="none" stroke="#09366f" stroke-width="1"/>
  </g>
</svg>
