<svg xmlns="http://www.w3.org/2000/svg" width="20.065" height="22.658" viewBox="0 0 20.065 22.658">
  <g id="Group_60461" data-name="Group 60461" transform="translate(-191 -43)">
    <path id="Path_141782" data-name="Path 141782" d="M191,62.953V51a.923.923,0,0,0,.1-.186,3.117,3.117,0,0,1,3.093-2.461c.505-.023,1.012-.033,1.518-.038.629-.006,1.259,0,2.019,0-.51-.542-.944-.972-1.34-1.433a1.276,1.276,0,0,1,.039-1.74,1.3,1.3,0,0,1,1.739-.189,6.175,6.175,0,0,1,.667.6c.75.722,1.5,1.448,2.226,2.156,1.2-1.185,2.4-2.392,3.625-3.582.412-.4.869-.756,1.3-1.131h.676c1.231.686,1.364,1.486.41,2.5q-.577.615-1.177,1.21c-.5.494-1.01.976-1.516,1.463l.081.141c1.1,0,2.2-.013,3.3,0a3.133,3.133,0,0,1,2.717,1.435A9.22,9.22,0,0,1,211.065,51V62.953a3.5,3.5,0,0,1-1.309,2.018,12.562,12.562,0,0,1-1.509.687H193.818a3.509,3.509,0,0,1-2.327-1.593C191.294,63.713,191.162,63.325,191,62.953Zm9.945,1.465q3.239,0,6.479,0a2,2,0,0,0,2.27-2.293q0-4.93,0-9.861c0-1.607-.675-2.319-2.285-2.325q-6.48-.022-12.96,0a1.884,1.884,0,0,0-2.108,2.09q-.027,5.156,0,10.311a1.914,1.914,0,0,0,2.124,2.077Q197.705,64.421,200.945,64.418Z" fill="#da1c5c"/>
    <path id="Path_141788" data-name="Path 141788" d="M246.853,133.92c0-1.089-.01-2.178,0-3.267.01-.867.544-1.2,1.307-.769q2.818,1.589,5.6,3.241c.778.463.783,1.051.008,1.513q-2.8,1.674-5.644,3.278c-.777.437-1.26.112-1.267-.786-.008-1.07,0-2.141,0-3.211Z" transform="translate(-49.554 -76.924)" fill="#aa3c77"/>
  </g>
</svg>
